<svg xmlns="http://www.w3.org/2000/svg" width="512" height="512" viewBox="0 0 680 720">
  <rect width="680" height="720" fill="#040404"/>
  <line stroke="#080101" stroke-width="0.3" fill="none" x1="0" y1="40" x2="680" y2="40"/>
  <line stroke="#080101" stroke-width="0.3" fill="none" x1="0" y1="80" x2="680" y2="80"/>
  <line stroke="#080101" stroke-width="0.3" fill="none" x1="0" y1="120" x2="680" y2="120"/>
  <line stroke="#080101" stroke-width="0.3" fill="none" x1="0" y1="160" x2="680" y2="160"/>
  <line stroke="#080101" stroke-width="0.3" fill="none" x1="0" y1="200" x2="680" y2="200"/>
  <line stroke="#080101" stroke-width="0.3" fill="none" x1="0" y1="240" x2="680" y2="240"/>
  <line stroke="#080101" stroke-width="0.3" fill="none" x1="0" y1="280" x2="680" y2="280"/>
  <line stroke="#080101" stroke-width="0.3" fill="none" x1="0" y1="320" x2="680" y2="320"/>
  <line stroke="#080101" stroke-width="0.3" fill="none" x1="0" y1="360" x2="680" y2="360"/>
  <line stroke="#080101" stroke-width="0.3" fill="none" x1="0" y1="400" x2="680" y2="400"/>
  <line stroke="#080101" stroke-width="0.3" fill="none" x1="0" y1="440" x2="680" y2="440"/>
  <line stroke="#080101" stroke-width="0.3" fill="none" x1="0" y1="480" x2="680" y2="480"/>
  <line stroke="#080101" stroke-width="0.3" fill="none" x1="0" y1="520" x2="680" y2="520"/>
  <line stroke="#080101" stroke-width="0.3" fill="none" x1="0" y1="560" x2="680" y2="560"/>
  <line stroke="#080101" stroke-width="0.3" fill="none" x1="0" y1="600" x2="680" y2="600"/>
  <line stroke="#080101" stroke-width="0.3" fill="none" x1="0" y1="640" x2="680" y2="640"/>
  <line stroke="#080101" stroke-width="0.3" fill="none" x1="40" y1="0" x2="40" y2="720"/>
  <line stroke="#080101" stroke-width="0.3" fill="none" x1="80" y1="0" x2="80" y2="720"/>
  <line stroke="#080101" stroke-width="0.3" fill="none" x1="120" y1="0" x2="120" y2="720"/>
  <line stroke="#080101" stroke-width="0.3" fill="none" x1="160" y1="0" x2="160" y2="720"/>
  <line stroke="#080101" stroke-width="0.3" fill="none" x1="200" y1="0" x2="200" y2="720"/>
  <line stroke="#080101" stroke-width="0.3" fill="none" x1="240" y1="0" x2="240" y2="720"/>
  <line stroke="#080101" stroke-width="0.3" fill="none" x1="280" y1="0" x2="280" y2="720"/>
  <line stroke="#080101" stroke-width="0.3" fill="none" x1="320" y1="0" x2="320" y2="720"/>
  <line stroke="#080101" stroke-width="0.3" fill="none" x1="360" y1="0" x2="360" y2="720"/>
  <line stroke="#080101" stroke-width="0.3" fill="none" x1="400" y1="0" x2="400" y2="720"/>
  <line stroke="#080101" stroke-width="0.3" fill="none" x1="440" y1="0" x2="440" y2="720"/>
  <line stroke="#080101" stroke-width="0.3" fill="none" x1="480" y1="0" x2="480" y2="720"/>
  <line stroke="#080101" stroke-width="0.3" fill="none" x1="520" y1="0" x2="520" y2="720"/>
  <line stroke="#080101" stroke-width="0.3" fill="none" x1="560" y1="0" x2="560" y2="720"/>
  <line stroke="#080101" stroke-width="0.3" fill="none" x1="600" y1="0" x2="600" y2="720"/>
  <line stroke="#080101" stroke-width="0.3" fill="none" x1="640" y1="0" x2="640" y2="720"/>
  <line stroke="#110303" stroke-width="0.4" fill="none" x1="0" y1="0" x2="680" y2="680"/>
  <line stroke="#110303" stroke-width="0.4" fill="none" x1="680" y1="0" x2="0" y2="680"/>
  <line stroke="#110303" stroke-width="0.4" fill="none" x1="0" y1="80" x2="600" y2="680"/>
  <line stroke="#110303" stroke-width="0.4" fill="none" x1="80" y1="0" x2="680" y2="600"/>
  <line stroke="#110303" stroke-width="0.4" fill="none" x1="680" y1="80" x2="80" y2="680"/>
  <line stroke="#110303" stroke-width="0.4" fill="none" x1="600" y1="0" x2="0" y2="600"/>
  <line stroke="#110303" stroke-width="0.4" fill="none" x1="0" y1="160" x2="520" y2="680"/>
  <line stroke="#110303" stroke-width="0.4" fill="none" x1="160" y1="0" x2="680" y2="520"/>
  <line stroke="#110303" stroke-width="0.4" fill="none" x1="680" y1="160" x2="160" y2="680"/>
  <line stroke="#110303" stroke-width="0.4" fill="none" x1="0" y1="240" x2="440" y2="680"/>
  <line stroke="#110303" stroke-width="0.4" fill="none" x1="240" y1="0" x2="680" y2="440"/>
  <line stroke="#110303" stroke-width="0.4" fill="none" x1="680" y1="240" x2="240" y2="680"/>
  <line stroke="#110303" stroke-width="0.4" fill="none" x1="0" y1="320" x2="360" y2="680"/>
  <line stroke="#110303" stroke-width="0.4" fill="none" x1="320" y1="0" x2="680" y2="360"/>
  <line stroke="#110303" stroke-width="0.4" fill="none" x1="680" y1="320" x2="320" y2="680"/>
  <path stroke="#1e0505" stroke-width="0.5" fill="none" d="M0,100 Q170,50 340,300 Q510,550 680,460"/>
  <path stroke="#1e0505" stroke-width="0.5" fill="none" d="M0,560 Q170,610 340,300 Q510,0 680,100"/>
  <path stroke="#1e0505" stroke-width="0.5" fill="none" d="M100,0 Q50,170 300,340 Q550,510 460,680"/>
  <path stroke="#1e0505" stroke-width="0.5" fill="none" d="M580,0 Q630,170 380,340 Q130,510 220,680"/>
  <path stroke="#1e0505" stroke-width="0.5" fill="none" d="M0,300 Q160,150 340,300 Q520,450 680,300"/>
  <path stroke="#1e0505" stroke-width="0.5" fill="none" d="M340,0 Q490,150 340,300 Q190,450 340,680"/>
  <path stroke="#1e0505" stroke-width="0.5" fill="none" d="M0,60 Q340,0 680,60"/>
  <path stroke="#1e0505" stroke-width="0.5" fill="none" d="M0,620 Q340,680 680,620"/>
  <path stroke="#1e0505" stroke-width="0.5" fill="none" d="M60,0 Q0,360 60,720"/>
  <path stroke="#1e0505" stroke-width="0.5" fill="none" d="M620,0 Q680,360 620,720"/>
  <path stroke="#1e0505" stroke-width="0.5" fill="none" d="M0,200 Q100,300 0,400"/>
  <path stroke="#1e0505" stroke-width="0.5" fill="none" d="M680,200 Q580,300 680,400"/>
  <path stroke="#1e0505" stroke-width="0.5" fill="none" d="M200,0 Q300,100 400,0"/>
  <path stroke="#1e0505" stroke-width="0.5" fill="none" d="M200,720 Q300,620 400,720"/>
  <path stroke="#1e0505" stroke-width="0.5" fill="none" d="M0,400 Q120,320 240,400 Q340,480 460,400 Q580,320 680,400"/>
  <path stroke="#1e0505" stroke-width="0.5" fill="none" d="M0,240 Q120,300 240,240 Q340,180 460,240 Q580,300 680,240"/>
  <path stroke="#3a0808" stroke-width="0.55" fill="none" d="M340,310 Q200,180 60,80"/>
  <path stroke="#3a0808" stroke-width="0.55" fill="none" d="M340,310 Q480,180 620,80"/>
  <path stroke="#3a0808" stroke-width="0.55" fill="none" d="M340,310 Q200,440 60,560"/>
  <path stroke="#3a0808" stroke-width="0.55" fill="none" d="M340,310 Q480,440 620,560"/>
  <path stroke="#3a0808" stroke-width="0.55" fill="none" d="M340,310 Q160,300 0,280"/>
  <path stroke="#3a0808" stroke-width="0.55" fill="none" d="M340,310 Q520,300 680,280"/>
  <path stroke="#3a0808" stroke-width="0.55" fill="none" d="M340,310 Q320,140 310,20"/>
  <path stroke="#3a0808" stroke-width="0.55" fill="none" d="M340,310 Q360,140 370,20"/>
  <path stroke="#3a0808" stroke-width="0.55" fill="none" d="M340,310 Q320,480 310,640"/>
  <path stroke="#3a0808" stroke-width="0.55" fill="none" d="M340,310 Q360,480 370,640"/>
  <path stroke="#3a0808" stroke-width="0.55" fill="none" d="M340,310 Q120,220 0,160"/>
  <path stroke="#3a0808" stroke-width="0.55" fill="none" d="M340,310 Q560,220 680,160"/>
  <path stroke="#3a0808" stroke-width="0.55" fill="none" d="M340,310 Q120,420 0,480"/>
  <path stroke="#3a0808" stroke-width="0.55" fill="none" d="M340,310 Q560,420 680,480"/>
  <path stroke="#7a1515" stroke-width="0.6" fill="none" opacity="0.45" d="M220,310 Q110,200 20,60"/>
  <path stroke="#7a1515" stroke-width="0.6" fill="none" opacity="0.45" d="M220,310 Q110,400 20,560"/>
  <path stroke="#7a1515" stroke-width="0.6" fill="none" opacity="0.45" d="M220,310 Q110,310 0,310"/>
  <path stroke="#7a1515" stroke-width="0.6" fill="none" opacity="0.45" d="M270,310 Q190,160 120,20"/>
  <path stroke="#7a1515" stroke-width="0.6" fill="none" opacity="0.45" d="M270,310 Q200,460 140,620"/>
  <path stroke="#7a1515" stroke-width="0.6" fill="none" opacity="0.45" d="M310,310 Q260,180 220,40"/>
  <path stroke="#7a1515" stroke-width="0.6" fill="none" opacity="0.45" d="M310,310 Q260,440 220,580"/>
  <path stroke="#7a1515" stroke-width="0.6" fill="none" opacity="0.45" d="M350,310 Q350,180 350,40"/>
  <path stroke="#7a1515" stroke-width="0.6" fill="none" opacity="0.45" d="M350,310 Q350,440 350,600"/>
  <path stroke="#7a1515" stroke-width="0.6" fill="none" opacity="0.45" d="M390,310 Q440,180 480,40"/>
  <path stroke="#7a1515" stroke-width="0.6" fill="none" opacity="0.45" d="M390,310 Q440,440 480,600"/>
  <path stroke="#7a1515" stroke-width="0.6" fill="none" opacity="0.45" d="M440,310 Q520,200 600,60"/>
  <path stroke="#7a1515" stroke-width="0.6" fill="none" opacity="0.45" d="M440,310 Q520,420 600,560"/>
  <path stroke="#7a1515" stroke-width="0.6" fill="none" opacity="0.45" d="M440,310 Q560,280 680,260"/>
  <circle fill="#c0392b" cx="340" cy="20" r="3" opacity="0.9"/>
  <circle fill="#c0392b" cx="20" cy="310" r="3" opacity="0.9"/>
  <circle fill="#c0392b" cx="660" cy="310" r="3" opacity="0.9"/>
  <circle fill="#c0392b" cx="340" cy="660" r="3" opacity="0.9"/>
  <circle fill="#c0392b" cx="60" cy="60" r="3" opacity="0.8"/>
  <circle fill="#c0392b" cx="620" cy="60" r="3" opacity="0.8"/>
  <circle fill="#c0392b" cx="60" cy="640" r="3" opacity="0.8"/>
  <circle fill="#c0392b" cx="620" cy="640" r="3" opacity="0.8"/>
  <circle fill="#c0392b" cx="220" cy="310" r="3" opacity="0.7"/>
  <circle fill="#c0392b" cx="270" cy="310" r="3" opacity="0.7"/>
  <circle fill="#c0392b" cx="310" cy="310" r="3" opacity="0.7"/>
  <circle fill="#c0392b" cx="350" cy="310" r="3" opacity="0.7"/>
  <circle fill="#c0392b" cx="390" cy="310" r="3" opacity="0.7"/>
  <circle fill="#c0392b" cx="440" cy="310" r="3" opacity="0.7"/>
  <ellipse cx="340" cy="310" rx="200" ry="160" fill="#040404" opacity="0.88"/>
  <text x="340" y="360" text-anchor="middle" font-family="serif" font-size="100" fill="#c0392b" opacity="0.35">&#x05D1;&#x05B0;&#x05BC;&#x05E8;&#x05B5;&#x05D0;&#x05E9;&#x05B4;&#x05C1;&#x05D9;&#x05EA;</text>
  <text x="340" y="706" text-anchor="middle" font-family="monospace" font-size="20" fill="#c0392b" opacity="0.9" letter-spacing="12">ASISTENT</text>
</svg>
